<?xml version="1.0" standalone="no"?>
<!DOCTYPE svg PUBLIC "-//W3C//DTD SVG 20010904//EN"
 "http://www.w3.org/TR/2001/REC-SVG-20010904/DTD/svg10.dtd">
<svg version="1.0" xmlns="http://www.w3.org/2000/svg"
 width="1024.000000pt" height="1024.000000pt" viewBox="0 0 1024.000000 1024.000000"
 preserveAspectRatio="xMidYMid meet">
<metadata>
Created by potrace 1.11, written by Peter Selinger 2001-2013
</metadata>
<g transform="translate(0.000000,1024.000000) scale(0.100000,-0.100000)"
fill="#000000" stroke="none">
<path d="M5 10228 c-3 -7 -4 -2310 -3 -5118 l3 -5105 5115 0 5115 0 0 5115 0
5115 -5113 3 c-4085 2 -5114 0 -5117 -10z m5305 -1278 c513 -29 955 -136 1414
-346 182 -83 326 -164 516 -289 217 -144 398 -292 590 -485 390 -389 677 -831
874 -1343 334 -868 334 -1866 0 -2734 -109 -283 -216 -491 -389 -753 -144
-217 -292 -398 -485 -590 -539 -540 -1207 -900 -1948 -1049 -695 -140 -1441
-83 -2092 161 -293 109 -527 229 -790 403 -217 144 -398 292 -590 485 -316
315 -569 672 -754 1062 -495 1042 -495 2254 0 3296 83 175 145 284 269 472
144 217 292 398 485 590 398 399 851 690 1380 888 344 129 738 211 1115 231
204 12 214 12 405 1z"/>
<path d="M4755 8414 c-659 -72 -1297 -352 -1806 -792 -546 -472 -931 -1128
-1074 -1830 -53 -262 -60 -337 -60 -672 0 -335 7 -410 60 -672 203 -996 870
-1854 1790 -2303 467 -228 931 -335 1455 -335 524 0 988 107 1455 335 1026
501 1720 1493 1840 2628 19 187 19 506 0 695 -118 1132 -815 2127 -1840 2627
-357 174 -721 279 -1107 320 -182 19 -534 18 -713 -1z m1647 -801 c195 -48
355 -141 499 -290 182 -187 272 -379 299 -633 13 -127 13 -3338 0 -3440 -20
-152 -113 -286 -242 -349 -111 -54 -271 -61 -396 -17 -118 42 -222 150 -264
274 l-23 67 -3 1738 -2 1737 -340 0 -340 0 -2 -1737 -3 -1738 -21 -62 c-30
-86 -64 -141 -119 -192 -97 -89 -244 -131 -395 -112 -194 25 -313 123 -376
311 -18 53 -19 130 -22 1793 l-2 1737 -340 0 -340 0 -2 -1737 -3 -1738 -23
-67 c-71 -211 -282 -331 -522 -298 -177 25 -305 130 -363 300 l-22 65 -3 1670
c-2 1119 0 1707 8 1781 14 150 41 249 99 369 59 119 105 183 209 289 166 169
366 267 602 296 36 4 583 7 1215 6 1137 -2 1151 -2 1237 -23z"/>
</g>
</svg>
